<?xml version="1.0" encoding="UTF-8"?>
<svg xmlns="http://www.w3.org/2000/svg" xmlns:xlink="http://www.w3.org/1999/xlink" width="46pt" height="37pt" viewBox="0 0 46 37" version="1.1">
<g id="surface1">
<path style=" stroke:none;fill-rule:evenodd;fill:rgb(47.45098%,32.156863%,70.196078%);fill-opacity:1;" d="M 9.554688 0.00390625 C 6.929688 0.00390625 4.988281 2.324219 5.074219 4.839844 C 5.15625 7.253906 5.050781 10.382812 4.269531 12.9375 C 3.484375 15.496094 2.164062 17.117188 0 17.324219 L 0 19.675781 C 2.164062 19.882812 3.484375 21.503906 4.269531 24.0625 C 5.050781 26.617188 5.15625 29.746094 5.074219 32.160156 C 4.988281 34.675781 6.929688 36.996094 9.554688 36.996094 L 36.449219 36.996094 C 39.074219 36.996094 41.015625 34.675781 40.929688 32.160156 C 40.84375 29.746094 40.953125 26.617188 41.734375 24.0625 C 42.515625 21.503906 43.835938 19.882812 46 19.675781 L 46 17.324219 C 43.835938 17.117188 42.515625 15.496094 41.734375 12.9375 C 40.953125 10.382812 40.84375 7.253906 40.929688 4.839844 C 41.015625 2.324219 39.074219 0.00390625 36.449219 0.00390625 Z M 31.1875 22.773438 C 31.1875 26.238281 28.628906 28.339844 24.382812 28.339844 L 17.152344 28.339844 C 16.722656 28.339844 16.371094 27.984375 16.371094 27.550781 L 16.371094 9.449219 C 16.371094 9.015625 16.722656 8.660156 17.152344 8.660156 L 24.339844 8.660156 C 27.878906 8.660156 30.203125 10.597656 30.203125 13.570312 C 30.203125 15.65625 28.640625 17.523438 26.648438 17.851562 L 26.648438 17.960938 C 29.359375 18.261719 31.1875 20.15625 31.1875 22.773438 Z M 23.59375 11.15625 L 19.472656 11.15625 L 19.472656 17.035156 L 22.941406 17.035156 C 25.625 17.035156 27.105469 15.941406 27.105469 13.992188 C 27.105469 12.164062 25.832031 11.15625 23.59375 11.15625 Z M 19.472656 19.367188 L 19.472656 25.84375 L 23.746094 25.84375 C 26.539062 25.84375 28.019531 24.710938 28.019531 22.582031 C 28.019531 20.457031 26.496094 19.367188 23.566406 19.367188 Z M 19.472656 19.367188 "/>
</g>
</svg>
