<?xml version="1.0" encoding="UTF-8"?>
<svg xmlns="http://www.w3.org/2000/svg" xmlns:xlink="http://www.w3.org/1999/xlink" width="46pt" height="46pt" viewBox="0 0 46 46" version="1.1">
<defs>
<radialGradient id="radial0" gradientUnits="userSpaceOnUse" cx="-1002.9117" cy="1088.6686" fx="-1002.9117" fy="1088.6686" r="0.6371" gradientTransform="matrix(50.201971,0,0,-48.60464,50363.9303,52926.67655)">
<stop offset="0" style="stop-color:rgb(20.392157%,21.176471%,30.588235%);stop-opacity:0.980392;"/>
<stop offset="1" style="stop-color:rgb(4.705882%,3.137255%,14.117647%);stop-opacity:1;"/>
</radialGradient>
</defs>
<g id="surface1">
<path style=" stroke:none;fill-rule:nonzero;fill:url(#radial0);" d="M 1.914062 3.144531 L 44.003906 3.144531 L 44.003906 44.085938 L 1.914062 44.085938 Z M 1.914062 3.144531 "/>
<path style=" stroke:none;fill-rule:nonzero;fill:rgb(19.215686%,77.254902%,94.117647%);fill-opacity:1;" d="M 1.914062 3.144531 L 44.003906 3.144531 L 44.003906 44.085938 L 1.914062 44.085938 Z M 0 46 L 45.90625 46 L 45.90625 1.234375 L 0 1.234375 Z M 30.957031 19.605469 C 29.449219 19.605469 28.933594 20.367188 28.933594 21.003906 C 28.933594 21.695312 29.273438 22.171875 31.308594 23.222656 C 34.308594 24.675781 35.246094 26.074219 35.246094 28.113281 C 35.246094 31.179688 32.910156 32.824219 29.753906 32.824219 C 28.085938 32.824219 26.652344 32.484375 25.832031 32.007812 C 25.695312 31.953125 25.675781 31.851562 25.675781 31.703125 L 25.675781 28.878906 C 25.675781 28.6875 25.769531 28.628906 25.90625 28.722656 C 27.113281 29.503906 28.492188 29.855469 29.753906 29.855469 C 31.261719 29.855469 31.894531 29.21875 31.894531 28.363281 C 31.894531 27.671875 31.453125 27.066406 29.523438 26.0625 C 26.808594 24.765625 25.675781 23.449219 25.675781 21.242188 C 25.675781 18.777344 27.609375 16.726562 30.957031 16.726562 C 32.605469 16.726562 33.753906 16.972656 34.378906 17.257812 C 34.535156 17.351562 34.574219 17.507812 34.574219 17.644531 L 34.574219 20.269531 C 34.574219 20.425781 34.480469 20.515625 34.289062 20.460938 C 33.441406 19.925781 32.199219 19.605469 30.957031 19.605469 Z M 14.507812 21.878906 C 14.949219 21.914062 15.289062 21.914062 16.054688 21.914062 C 18.289062 21.914062 20.394531 21.132812 20.394531 18.085938 C 20.394531 15.660156 18.886719 14.433594 16.339844 14.433594 C 15.574219 14.433594 14.847656 14.472656 14.5 14.488281 Z M 11.09375 11.722656 C 11.09375 11.582031 11.363281 11.492188 11.519531 11.492188 C 12.742188 11.4375 14.5625 11.398438 16.449219 11.398438 C 21.75 11.398438 23.820312 14.304688 23.820312 18.011719 C 23.820312 22.871094 20.296875 24.960938 15.972656 24.960938 C 15.246094 24.960938 14.996094 24.921875 14.480469 24.921875 L 14.480469 32.265625 C 14.480469 32.421875 14.425781 32.496094 14.25 32.496094 L 11.324219 32.496094 C 11.167969 32.496094 11.09375 32.4375 11.09375 32.265625 Z M 11.09375 11.722656 "/>
</g>
</svg>
