<?xml version="1.0" encoding="UTF-8"?>
<svg xmlns="http://www.w3.org/2000/svg" xmlns:xlink="http://www.w3.org/1999/xlink" width="46pt" height="46pt" viewBox="0 0 46 46" version="1.1">
<g id="surface1">
<path style=" stroke:none;fill-rule:nonzero;fill:rgb(17.647059%,45.098039%,62.745098%);fill-opacity:1;" d="M 3.269531 23.007812 C 3.269531 30.824219 7.8125 37.574219 14.394531 40.777344 L 4.980469 14.976562 C 3.882812 17.429688 3.269531 20.148438 3.269531 23.007812 "/>
<path style=" stroke:none;fill-rule:nonzero;fill:rgb(17.647059%,45.098039%,62.745098%);fill-opacity:1;" d="M 36.335938 22.011719 C 36.335938 19.574219 35.460938 17.882812 34.707031 16.570312 C 33.707031 14.945312 32.769531 13.566406 32.769531 11.941406 C 32.769531 10.125 34.144531 8.4375 36.085938 8.4375 C 36.171875 8.4375 36.253906 8.449219 36.339844 8.453125 C 32.828125 5.234375 28.148438 3.269531 23.011719 3.269531 C 16.113281 3.269531 10.046875 6.808594 6.515625 12.167969 C 6.980469 12.183594 7.417969 12.191406 7.789062 12.191406 C 9.851562 12.191406 13.046875 11.941406 13.046875 11.941406 C 14.113281 11.878906 14.238281 13.441406 13.175781 13.566406 C 13.175781 13.566406 12.105469 13.691406 10.914062 13.753906 L 18.105469 35.136719 L 22.425781 22.179688 L 19.347656 13.753906 C 18.285156 13.691406 17.277344 13.566406 17.277344 13.566406 C 16.214844 13.503906 16.339844 11.878906 17.402344 11.941406 C 17.402344 11.941406 20.664062 12.191406 22.601562 12.191406 C 24.667969 12.191406 27.863281 11.941406 27.863281 11.941406 C 28.929688 11.878906 29.054688 13.441406 27.988281 13.566406 C 27.988281 13.566406 26.917969 13.691406 25.730469 13.753906 L 32.863281 34.972656 L 34.832031 28.394531 C 35.6875 25.664062 36.335938 23.703125 36.335938 22.011719 "/>
<path style=" stroke:none;fill-rule:nonzero;fill:rgb(17.647059%,45.098039%,62.745098%);fill-opacity:1;" d="M 23.355469 24.738281 L 17.433594 41.945312 C 19.203125 42.464844 21.074219 42.75 23.011719 42.75 C 25.308594 42.75 27.511719 42.351562 29.566406 41.632812 C 29.511719 41.546875 29.464844 41.457031 29.425781 41.359375 L 23.355469 24.738281 "/>
<path style=" stroke:none;fill-rule:nonzero;fill:rgb(17.647059%,45.098039%,62.745098%);fill-opacity:1;" d="M 40.332031 13.539062 C 40.414062 14.167969 40.464844 14.84375 40.464844 15.570312 C 40.464844 17.570312 40.089844 19.824219 38.964844 22.640625 L 32.933594 40.070312 C 38.800781 36.648438 42.75 30.292969 42.75 23.007812 C 42.75 19.578125 41.871094 16.351562 40.332031 13.539062 "/>
<path style=" stroke:none;fill-rule:nonzero;fill:rgb(17.647059%,45.098039%,62.745098%);fill-opacity:1;" d="M 23.011719 44.964844 C 10.90625 44.964844 1.054688 35.117188 1.054688 23.007812 C 1.054688 10.902344 10.902344 1.054688 23.011719 1.054688 C 35.117188 1.054688 44.964844 10.902344 44.964844 23.007812 C 44.964844 35.117188 35.117188 44.964844 23.011719 44.964844 Z M 23.011719 0 C 10.324219 0 0 10.320312 0 23.007812 C 0 35.699219 10.320312 46.019531 23.011719 46.019531 C 35.699219 46.019531 46.023438 35.699219 46.023438 23.007812 C 46.019531 10.320312 35.699219 0 23.011719 0 "/>
</g>
</svg>
